<?xml version="1.0" standalone="no"?>
<!DOCTYPE svg PUBLIC "-//W3C//DTD SVG 20010904//EN"
 "http://www.w3.org/TR/2001/REC-SVG-20010904/DTD/svg10.dtd">
<svg version="1.0" xmlns="http://www.w3.org/2000/svg"
 width="512.000000pt" height="512.000000pt" viewBox="0 0 512.000000 512.000000"
 preserveAspectRatio="xMidYMid meet">
<metadata>
Created by potrace 1.16, written by Ali Cömert
</metadata>
<g transform="translate(0.000000,512.000000) scale(0.100000,-0.100000)"
fill="rgb(30,64,175)" stroke="none">
<path d="M2031 4359 c-83 -25 -153 -88 -207 -191 l-39 -73 -3 -357 -3 -358
-333 0 c-358 0 -372 -2 -483 -58 -55 -29 -118 -103 -143 -169 -20 -54 -21 -71
-18 -532 l3 -476 24 -53 c24 -53 119 -152 146 -152 8 0 20 -6 28 -14 30 -31
93 -36 434 -36 l342 0 3 -393 c2 -269 7 -398 14 -408 6 -8 20 -36 30 -64 12
-32 39 -70 79 -110 87 -89 121 -98 364 -103 106 -2 197 0 201 5 8 9 -21 252
-33 271 -6 9 -49 12 -157 12 -148 0 -148 0 -177 28 l-30 27 -5 223 c-5 202 -7
225 -25 245 -59 66 -154 243 -193 357 -12 36 -26 74 -30 85 -5 11 -14 40 -22
65 l-13 45 -335 5 c-184 3 -336 7 -337 8 -1 1 -9 15 -18 32 -13 24 -15 89 -15
417 0 349 2 391 17 413 9 14 22 28 27 32 6 4 202 8 435 8 424 0 425 0 458 23
18 12 38 36 44 54 6 20 10 173 9 430 -1 219 -1 406 -1 415 1 9 12 28 25 41 23
23 33 25 183 32 87 3 273 4 413 1 l255 -6 23 -25 22 -26 0 -420 c0 -448 0
-449 50 -494 21 -19 40 -20 456 -25 399 -5 435 -6 451 -23 17 -16 18 -50 21
-426 3 -401 2 -408 -18 -434 l-21 -27 -177 0 c-97 0 -182 -4 -189 -8 -6 -4
-14 -21 -18 -37 -4 -17 -20 -72 -36 -123 -16 -51 -29 -99 -29 -108 0 -13 32
-15 263 -12 257 3 263 3 311 28 59 30 139 106 165 158 36 72 41 132 41 515 0
426 -7 523 -43 593 -45 88 -120 149 -219 178 -47 13 -110 16 -386 16 l-331 0
-3 358 c-3 305 -6 363 -21 400 -23 59 -61 109 -118 157 -90 76 -76 74 -604 74
-272 -1 -484 -5 -504 -10z"/>
<path d="M2265 2950 c-11 -4 -31 -20 -44 -34 -14 -14 -35 -26 -47 -26 -82 0
-192 -78 -235 -166 -51 -106 -24 -395 60 -638 14 -38 19 -71 15 -95 -14 -86
159 -363 284 -454 71 -53 165 -97 236 -111 l61 -13 5 -236 c4 -170 9 -240 18
-249 6 -6 12 -22 12 -33 0 -34 68 -156 114 -203 81 -85 234 -133 358 -114 152
24 247 89 307 209 19 37 39 77 44 88 6 11 12 50 15 87 4 60 7 67 28 72 34 9
91 62 120 113 37 61 37 172 2 241 -45 87 -154 142 -252 128 -24 -4 -67 -21
-97 -39 -99 -59 -147 -202 -100 -302 27 -58 86 -122 126 -136 20 -7 35 -20 35
-29 -1 -45 -32 -137 -61 -181 -49 -71 -105 -101 -200 -107 -100 -6 -170 16
-221 70 -81 86 -100 172 -96 438 l3 185 45 6 c104 15 253 98 323 180 21 24 50
58 65 74 73 79 153 248 151 318 -1 23 6 62 16 87 48 129 76 273 82 431 5 143
4 159 -16 203 -45 103 -109 155 -218 175 -35 7 -60 19 -81 41 -27 27 -37 30
-91 30 -49 0 -65 -4 -88 -24 -26 -23 -28 -29 -28 -101 0 -72 2 -78 28 -101 22
-19 39 -24 82 -24 47 0 59 4 90 32 l36 31 53 -16 c123 -39 146 -122 106 -380
-29 -186 -71 -315 -109 -329 -5 -1 -37 -59 -72 -128 -54 -109 -73 -136 -143
-206 -106 -107 -156 -128 -306 -128 -127 -1 -178 15 -274 85 -91 67 -157 163
-202 294 -21 61 -35 83 -54 88 -12 3 -24 25 -35 63 -9 33 -21 64 -26 70 -16
19 -59 285 -59 365 0 45 6 94 14 112 18 44 64 81 121 97 46 13 47 13 69 -15
20 -25 31 -29 89 -33 63 -4 68 -3 98 27 30 31 31 34 27 107 -5 96 -22 114
-107 113 -31 0 -65 -4 -76 -9z m1216 -1601 c28 -30 33 -48 29 -99 -5 -56 -49
-90 -118 -90 -95 0 -136 123 -65 194 21 21 35 26 75 26 43 0 54 -4 79 -31z"/>
</g>
</svg>
